# xmcd
#
# Track frame offsets: 
#        150
#        12437
#        25558
#        37781
#        56276
#        70876
#        83323
#        95875
#        104875
#        115223
#        130831
#
# Disc length: 1987 seconds
#
# Revision: 0
# Processed by: cddbd v1.5.1PL0 Copyright (c) Steve Scherf et al.
# Submitted via: ExactAudioCopy v0.95a5
#
DISCID=8407c10b
DTITLE=Broke Mountain - Cabin in the Hills
DYEAR=2004
DGENRE=Bluegrass
TTITLE0=Cabin In The Hills (R. Davis)
TTITLE1=Reservoir Hill (A. Beck)
TTITLE2=Yours To Abuse (J. Buck and A.Thorn)
TTITLE3=Why Cry (B. Galloway)
TTITLE4=Break Mountain Brokedown (A. Beck)
TTITLE5=Because I Can (R. Davis)
TTITLE6=I See Through Your Smile (A. Beck)
TTITLE7=Robin's Egg (R. Davis)
TTITLE8=Dark Hollow (Trad.)
TTITLE9=Eliza Lowery (B. Galloway)
TTITLE10=Cottonwood Breakdown (A. Thorn)
EXTD=
EXTT0=
EXTT1=
EXTT2=
EXTT3=
EXTT4=
EXTT5=
EXTT6=
EXTT7=
EXTT8=
EXTT9=
EXTT10=
PLAYORDER=
